<?xml version="1.0" encoding="UTF-8"?>
<svg viewBox="0 0 137.56 137.52" xmlns="http://www.w3.org/2000/svg">
 <defs>
  <radialGradient id="a" cx="68.795" cy="68.738" r="63.929" gradientUnits="userSpaceOnUse">
   <stop stop-color="#f28888" offset="0"/>
   <stop stop-color="#d82a2a" offset="1"/>
  </radialGradient>
 </defs>
 <path d="m2e-4 68.736c0 35.047 27.489 65.293 62.416 68.504 34.939 3.211 67.633-21.357 74.024-55.91 6.391-34.546-15.17-69.343-49.026-78.837-33.867-9.498-70.463 8.941-82.952 41.818-2.958 7.786-4.462 16.097-4.462 24.425"
       fill="#970f00"/>
 <path d="m4.8515 68.759c0 34.84 29.089 63.932 63.929 63.932 34.839 0 63.929-29.092 63.929-63.932 0-34.838-29.09-63.928-63.929-63.928-34.839 1e-3 -63.929 29.09-63.929 63.928"
       fill="url(#a)"/>
 <path d="m11.031 43.889c-5.166 30.106 12.817 60.349 41.733 70.201 30.669 10.451 65.179-4.994 78.005-34.7-6.163 35.951-43.128 59.583-78.349 50.078-36.365-9.813-56.377-50.905-41.389-85.579"
       fill="#b20d0d"/>
 <path d="m28.866 40.359c8.843 1.829 19.021-10.696 26.687-13.884 14.322-5.952 32.211-3.188 45.186 4.917 13.725 8.577 23.487 25.046 24.988 41.214 0.00499 0.045998 0.00499 0.055 9.99e-4 0.023994-1.014-9.79-0.32901-18.994-4.058-28.458-6.178-15.686-19.538-27.97-35.646-32.907-16.655-5.102-34.868-1.854-49.216 7.87-4.43 3.002-21.483 18.421-7.942 21.224"
       fill="#ef5656"/>
 <path d="m68.783 113.3c-22.764 0-41.241-18.085-41.241-40.365 0-11.097 4.6019-21.132 12.017-28.427l0.0349 0.0342c1.499-2.0255 3.92-3.3547 6.6688-3.3547 4.5527 0 8.2516 3.6147 8.2516 8.0708 0 2.7325-1.3961 5.1405-3.5206 6.6013l0.0291 0.0285c-4.4554 4.3919-7.2449 10.388-7.2449 17.047 0 13.433 11.194 24.338 24.982 24.338s24.976-10.905 24.976-24.338c0-6.0771-2.3352-11.588-6.1277-15.845-2.2559-1.4411-3.7592-3.9235-3.7592-6.7551 0-4.4561 3.6989-8.0765 8.2517-8.0764 2.2257 0 4.2361 0.8797 5.7203 2.284l0.1164-0.1139c7.4583 7.3008 12.081 17.373 12.081 28.507 0 22.28-18.471 40.365-41.235 40.365zm-0.0058-40.086c-4.5692 0-8.2458-3.6639-8.2458-8.2188v-32.562c0-4.555 3.6766-8.2188 8.2458-8.2188s8.2517 3.6639 8.2517 8.2188v32.562c0 4.555-3.6824 8.2188-8.2517 8.2188z"
       fill="#fff" fill-rule="evenodd" stroke="#f00" stroke-linecap="round" stroke-linejoin="bevel"
       stroke-opacity=".841"/>
</svg>
